<svg id="Capa_1" enable-background="new 0 0 508.747 508.747" fill="#ffffff" height="512" viewBox="0 0 508.747 508.747" width="512" xmlns="http://www.w3.org/2000/svg"><path d="m164.255 370.837 15.271-1.58-5.549 35.738c-.704 4.534 2.797 8.652 7.42 8.652 3.635 0 6.827-2.647 7.402-6.35l6.13-39.479c1.219-7.849-5.326-14.692-13.18-13.87l-16.349 1.691-.68-3.74 24.469-21.478c3.961-3.478 5.21-9.062 3.108-13.895l-3.638-8.368c-2.566-5.9-9.294-8.755-15.319-6.493l-20.248 7.593-8.281-1.439 7.069-32.045h3.313c5.365 0 10.012-3.451 11.564-8.59l19.956-66.181c1.196-3.965-1.05-8.15-5.016-9.346-3.961-1.196-8.149 1.049-9.346 5.016l-19.329 64.102h-3.488c-5.624 0-10.585 3.986-11.797 9.478l-8.232 37.318c-1.481 6.711 2.95 13.327 9.729 14.505 18.715 3.253 11.706 4.011 36.776-5.39l1.682 3.869c-31.423 27.582-29.793 22.677-26.566 40.431 1.125 6.169 6.883 10.499 13.129 9.851z"/><path d="m374.521 53.331-18.687-13.496v-12.767c0-6.289-4.724-11.461-10.987-12.03l-35.089-3.19c-3.367-.305-6.739.826-9.239 3.109-4.759 4.346-3.935 9.326-3.935 15.976l-13.008 2.855c-1.443-4.764-5.749-8.294-10.973-8.55l-10.801-.527c-8.188-.39-11.092 6.065-14.359 11.136l-5.705-4.51 4.842-7.302c2.959-4.463 2.602-10.427-.867-14.502l-4.485-5.274c-3.82-4.491-10.278-5.57-15.349-2.572l-8.571 5.066-8.602-1.036c-4.536-.549-8.927 1.467-11.472 5.254l-16.953 25.22c-2.781 4.138-2.714 9.652.168 13.722l6.47 9.134c-4.006 5.547-8.282 9.867-5.722 16.943l15.089 41.643-15.352 50.793c-1.198 3.965 1.045 8.151 5.01 9.349 3.968 1.2 8.15-1.044 9.35-5.009l15.632-51.724c.747-2.474.674-5.175-.206-7.607l-14.893-41.101 4.474-6.196c3.027-4.19 3.054-9.839.065-14.056l-6.512-9.194 14.831-22.064c13.321 1.605 10.763 2.09 22.709-4.972l1.469 1.727-5.11 7.706c-3.444 5.193-2.313 12.289 2.575 16.154l10.338 8.171c5.578 4.409 13.78 3.065 17.646-2.936l4.444-6.899 6.663.325c1.481 6.271 7.776 10.442 14.347 9.003l18.328-4.023c5.499-1.208 9.49-6.17 9.49-11.799v-6.206l29.25 2.659v11.593c0 3.869 1.872 7.53 5.007 9.793l18.404 13.292-3.947 21.706-30.521 20.355-12.855 3.461c-5.264 1.417-8.939 6.214-8.939 11.665v7.938c0 4.28 2.297 8.279 5.993 10.435l10.496 6.122 3.14 32.961-11.113 4.763c-4.212 1.804-7.08 5.927-7.308 10.5-.79 15.783-1.193 13.839 11.699 24.798l-3.946 12.28-8.546 8.545-17.819-3.96c-9.394-2.088-17.351 7.146-13.896 16.129l16.23 42.198c1.354 3.521 4.329 6.241 7.955 7.277l11.445 3.27.764 13.758c-2.357 1.109-6.921 2.719-8.719 8.381-1.919 6.045 1.103 9.786 4.362 15.529l-7.272-1.581c-8.715-1.9-16.427 5.997-14.298 14.682l6.113 24.922c1.33 5.417 6.154 9.2 11.731 9.2h11.941l.275 8.537-24.862 11.357c-2.441 1.114-4.467 3.04-5.706 5.426l-7.846 15.124c-1.386 2.675-1.724 5.751-.95 8.661l9.447 35.566-34.558 19.304-75.52-11.794 7.555-45.067c.686-4.085-2.071-7.952-6.156-8.637-4.085-.682-7.952 2.072-8.637 6.157l-7.642 45.585c-1.24 7.978 4.241 15.481 12.219 16.728 82.217 12.841 76.587 12.041 78.229 12.041 2.494 0 4.976-.636 7.162-1.859l34.898-19.495c5.852-3.27 8.736-10.077 7.016-16.554l-9.227-34.735 6.86-13.223 25.718-11.748c4.442-2.03 7.211-6.496 7.054-11.377l-.429-13.306c-.213-6.555-5.516-11.689-12.074-11.689h-12.479l-4.452-18.153 9.086 1.975c4.651 1.011 9.478-.813 12.297-4.646 2.82-3.833 3.124-8.984.775-13.122l-5.024-8.852 1.278-.602c4.477-2.106 7.192-6.66 6.918-11.601l-.988-17.8c-.285-5.133-3.799-9.531-8.743-10.944l-12.042-3.44-13.754-35.758 14.071 3.127c4.053.901 8.227-.313 11.164-3.25 14.712-14.712 11.151-8.843 17.894-29.828 1.502-4.664.06-9.729-3.675-12.904l-8.262-7.023.252-5.04 11.398-4.885c4.846-2.076 7.767-6.998 7.267-12.249l-3.482-36.572c-.368-3.862-2.587-7.335-5.939-9.291l-10.341-6.032v-4.024c12.058-3.246 12.589-3.197 14.718-4.618l31.948-21.307c2.712-1.807 4.602-4.682 5.187-7.891l4.499-24.739c.829-4.547-1.06-9.239-4.811-11.948z"/></svg>